<?xml version="1.0" encoding="UTF-8" standalone="no"?>
<!-- Created with Inkscape (http://www.inkscape.org/) -->

<svg
   xmlns:dc="http://purl.org/dc/elements/1.1/"
   xmlns:cc="http://creativecommons.org/ns#"
   xmlns:rdf="http://www.w3.org/1999/02/22-rdf-syntax-ns#"
   xmlns:svg="http://www.w3.org/2000/svg"
   xmlns="http://www.w3.org/2000/svg"
   xmlns:sodipodi="http://sodipodi.sourceforge.net/DTD/sodipodi-0.dtd"
   xmlns:inkscape="http://www.inkscape.org/namespaces/inkscape"
   width="300"
   height="70"
   id="svg5355"
   version="1.1"
   inkscape:version="0.47 r22583"
   sodipodi:docname="New document 3">
  <defs
     id="defs5357">
    <inkscape:perspective
       sodipodi:type="inkscape:persp3d"
       inkscape:vp_x="0 : 526.18109 : 1"
       inkscape:vp_y="0 : 1000 : 0"
       inkscape:vp_z="744.09448 : 526.18109 : 1"
       inkscape:persp3d-origin="372.04724 : 350.78739 : 1"
       id="perspective5363" />
    <inkscape:perspective
       id="perspective5296"
       inkscape:persp3d-origin="0.5 : 0.33333333 : 1"
       inkscape:vp_z="1 : 0.5 : 1"
       inkscape:vp_y="0 : 1000 : 0"
       inkscape:vp_x="0 : 0.5 : 1"
       sodipodi:type="inkscape:persp3d" />
    <clipPath
       clipPathUnits="userSpaceOnUse"
       id="clipPath2378">
      <path
         d="m 0,841.89 595.28,0 L 595.28,0 0,0 0,841.89 z"
         id="path2380" />
    </clipPath>
  </defs>
  <sodipodi:namedview
     id="base"
     pagecolor="#ffffff"
     bordercolor="#666666"
     borderopacity="1.0"
     inkscape:pageopacity="0.0"
     inkscape:pageshadow="2"
     inkscape:zoom="2.8"
     inkscape:cx="205.92924"
     inkscape:cy="28.779644"
     inkscape:document-units="px"
     inkscape:current-layer="layer1"
     showgrid="false"
     inkscape:window-width="1280"
     inkscape:window-height="750"
     inkscape:window-x="-8"
     inkscape:window-y="-8"
     inkscape:window-maximized="1" />
  <metadata
     id="metadata5360">
    <rdf:RDF>
      <cc:Work
         rdf:about="">
        <dc:format>image/svg+xml</dc:format>
        <dc:type
           rdf:resource="http://purl.org/dc/dcmitype/StillImage" />
        <dc:title></dc:title>
      </cc:Work>
    </rdf:RDF>
  </metadata>
  <g
     inkscape:label="Layer 1"
     inkscape:groupmode="layer"
     id="layer1"
     transform="translate(-106.94611,-316.33187)">
    <g
       id="g5585"
       transform="matrix(0.99745694,0,0,0.99745694,1.7440349,-0.26157405)">
      <g
         transform="matrix(3.8400969,0,0,-3.8400969,404.92684,379.53106)"
         id="g2382">
        <path
           id="path2384"
           style="fill:#4c76c4;fill-opacity:1;fill-rule:nonzero;stroke:none"
           d="m 0,0 c 0,-0.978 -0.794,-1.771 -1.771,-1.771 l -30.636,0 c -0.974,0 -1.765,0.793 -1.765,1.771 l 0,14.135 c 0,0.974 0.791,1.769 1.765,1.769 l 30.636,0 C -0.794,15.904 0,15.109 0,14.135 L 0,0 z" />
      </g>
      <g
         transform="matrix(3.8400969,0,0,-3.8400969,395.86272,376.54962)"
         id="g2386">
        <path
           id="path2388"
           style="fill:#ffffff;fill-opacity:1;fill-rule:nonzero;stroke:none"
           d="m 0,0 0,-0.396 c -0.427,-0.067 -0.859,-0.099 -1.305,-0.099 -0.998,0 -1.959,0.169 -2.828,0.495 L 0,0 z m 0,1.036 0,-0.499 -5.285,0 C -5.55,0.69 -5.808,0.857 -6.048,1.036 l 6.048,0 z m 0,1.234 0,-0.696 -6.688,0 C -6.919,1.792 -7.13,2.029 -7.326,2.27 L 0,2.27 z m 0,1.538 0,-1.001 -7.718,0 c -0.203,0.316 -0.381,0.644 -0.531,1.001 l 8.249,0 z m -3.811,2.073 c 0.122,-0.632 0.48,-1.17 0.967,-1.541 l -5.599,0 c -0.155,0.489 -0.248,1.009 -0.275,1.541 l 4.907,0 z m 0.925,2.456 C -3.458,7.888 -3.838,7.191 -3.851,6.419 l -4.873,0 c 0.033,0.668 0.168,1.31 0.398,1.918 l 5.44,0 z m 1.581,4.497 c 0.446,0 0.878,-0.033 1.305,-0.105 l 0,-3.859 -1.344,0 -6.747,0 c 1.16,2.332 3.764,3.964 6.786,3.964 m -12.829,-0.278 4.842,0 0,-3.683 -4.842,0 0,3.683 z m 0,-4.219 4.842,0 0,-1.918 -4.842,0 0,1.918 z m 0,-2.456 4.842,0 0,-1.541 -4.842,0 0,1.541 z m 0,-2.073 4.842,0 0,-1.001 -4.842,0 0,1.001 z m 0,-1.538 4.842,0 0,-0.695 -4.842,0 0,0.695 z m 0,-1.234 4.842,0 0,-0.499 -4.842,0 0,0.499 z m 0,-1.036 4.842,0 0,-0.214 -4.842,0 0,0.214 z m -0.824,0 0,-0.214 -5.109,0 -0.149,0.214 5.258,0 z m 0,1.036 0,-0.499 -5.633,0 -0.349,0.499 5.982,0 z m 0,1.234 0,-0.696 -6.357,0 -0.483,0.696 6.84,0 z m 0,1.538 0,-1.001 -7.212,0 -0.703,1.001 7.915,0 z m -4.631,5.062 0.023,3.743 4.608,-0.057 0,-3.686 -4.631,0 z m -9.308,0 0,3.686 5.338,0 2.479,-3.686 -7.817,0 z m 0,-2.451 0,1.918 8.184,0 1.111,-1.654 0.011,1.654 4.633,0 0,-1.918 -13.939,0 z m 0,-2.079 0,1.541 13.939,0 0,-1.541 -8.292,0 -0.997,1.427 0.046,-1.427 -4.696,0 z m 0,-1.533 0,1.001 4.716,0 0.027,-1.001 -4.743,0 z m 0,-1.233 0,0.696 4.764,0 0.019,-0.696 -4.783,0 z m 0,-1.037 0,0.499 4.801,0 0.019,-0.499 -4.82,0 z m 0,-0.751 0,0.214 4.836,0 0.005,-0.214 -4.841,0 z" />
      </g>
      <g
         style="fill:#000000"
         transform="matrix(3.8400969,0,0,-3.8400969,146.34282,341.20117)"
         id="g2390">
        <path
           id="path2392"
           style="fill:#000000;fill-opacity:1;fill-rule:nonzero;stroke:none"
           d="m 0,0 0,3.989 1.14,0 0.899,-1.462 C 2.296,2.106 2.545,1.609 2.744,1.16 l 0.012,0 C 2.698,1.688 2.679,2.226 2.679,2.83 l 0,1.159 0.898,0 L 3.577,0 2.55,0 1.628,1.539 C 1.37,1.966 1.083,2.48 0.878,2.948 l -0.025,0 C 0.886,2.416 0.898,1.853 0.898,1.202 L 0.898,0 0,0 z" />
      </g>
      <g
         style="fill:#000000"
         transform="matrix(3.8400969,0,0,-3.8400969,172.02347,334.67607)"
         id="g2394">
        <path
           id="path2396"
           style="fill:#000000;fill-opacity:1;fill-rule:nonzero;stroke:none"
           d="m 0,0 -0.27,0.846 c -0.078,0.236 -0.155,0.533 -0.216,0.769 l -0.015,0 C -0.565,1.379 -0.628,1.077 -0.699,0.846 L -0.955,0 0,0 z m -1.097,-0.675 -0.306,-1.024 -1.008,0 1.314,3.989 1.283,0 1.345,-3.989 -1.058,0 -0.333,1.024 -1.237,0 z" />
      </g>
      <g
         style="fill:#000000"
         transform="matrix(3.8400969,0,0,-3.8400969,181.89747,328.79228)"
         id="g2398">
        <path
           id="path2400"
           style="fill:#000000;fill-opacity:1;fill-rule:nonzero;stroke:none"
           d="m 0,0 -1.166,0 0,0.758 3.319,0 0,-0.758 -1.179,0 0,-3.231 L 0,-3.231 0,0 z" />
      </g>
      <path
         id="path2402"
         style="fill:#000000;fill-opacity:1;fill-rule:nonzero;stroke:none"
         d="m 196.54709,341.20078 -3.74409,0 0,-15.31815 3.74409,0 0,15.31815 z" />
      <g
         style="fill:#000000"
         transform="matrix(3.8400969,0,0,-3.8400969,203.61406,333.56246)"
         id="g2404">
        <path
           id="path2406"
           style="fill:#000000;fill-opacity:1;fill-rule:nonzero;stroke:none"
           d="m 0,0 c 0,-0.787 0.397,-1.339 1.051,-1.339 0.66,0 1.037,0.581 1.037,1.357 0,0.722 -0.364,1.336 -1.037,1.336 C 0.384,1.354 0,0.774 0,0 m 3.12,0.047 c 0,-1.314 -0.852,-2.102 -2.121,-2.102 -1.276,0 -2.031,0.895 -2.031,2.036 0,1.197 0.832,2.09 2.101,2.09 1.327,0 2.051,-0.918 2.051,-2.024" />
      </g>
      <g
         style="fill:#000000"
         transform="matrix(3.8400969,0,0,-3.8400969,218.68214,341.20117)"
         id="g2408">
        <path
           id="path2410"
           style="fill:#000000;fill-opacity:1;fill-rule:nonzero;stroke:none"
           d="m 0,0 0,3.989 1.141,0 0.896,-1.462 C 2.294,2.106 2.544,1.609 2.742,1.16 l 0.013,0 C 2.698,1.688 2.68,2.226 2.68,2.83 l 0,1.159 0.895,0 L 3.575,0 2.551,0 1.627,1.539 C 1.372,1.966 1.084,2.48 0.879,2.948 l -0.026,0 C 0.884,2.416 0.897,1.853 0.897,1.202 L 0.897,0 0,0 z" />
      </g>
      <g
         style="fill:#000000"
         transform="matrix(3.8400969,0,0,-3.8400969,244.35899,334.67607)"
         id="g2412">
        <path
           id="path2414"
           style="fill:#000000;fill-opacity:1;fill-rule:nonzero;stroke:none"
           d="m 0,0 -0.27,0.846 c -0.076,0.236 -0.153,0.533 -0.217,0.769 l -0.013,0 C -0.564,1.379 -0.629,1.077 -0.698,0.846 L -0.955,0 0,0 z m -1.096,-0.675 -0.307,-1.024 -1.007,0 1.314,3.989 1.282,0 1.344,-3.989 -1.056,0 -0.333,1.024 -1.237,0 z" />
      </g>
      <g
         style="fill:#000000"
         transform="matrix(3.8400969,0,0,-3.8400969,253.07793,325.88227)"
         id="g2416">
        <path
           id="path2418"
           style="fill:#000000;fill-opacity:1;fill-rule:nonzero;stroke:none"
           d="m 0,0 0.976,0 0,-3.231 1.715,0 0,-0.758 L 0,-3.989 0,0 z" />
      </g>
      <path
         id="path2420"
         style="fill:#000000;fill-opacity:1;fill-rule:nonzero;stroke:none"
         d="m 110.69021,359.39516 -3.7441,0 0,-15.31815 3.7441,0 0,15.31815 z" />
      <g
         style="fill:#000000"
         transform="matrix(3.8400969,0,0,-3.8400969,114.56068,359.39669)"
         id="g2422">
        <path
           id="path2424"
           style="fill:#000000;fill-opacity:1;fill-rule:nonzero;stroke:none"
           d="m 0,0 0,3.989 1.14,0 0.898,-1.46 C 2.293,2.106 2.542,1.611 2.742,1.16 l 0.012,0 C 2.697,1.688 2.678,2.227 2.678,2.83 l 0,1.159 0.896,0 L 3.574,0 2.549,0 1.626,1.54 C 1.371,1.965 1.082,2.48 0.877,2.949 l -0.025,0 C 0.883,2.415 0.896,1.854 0.896,1.202 L 0.896,0 0,0 z" />
      </g>
      <g
         style="fill:#000000"
         transform="matrix(3.8400969,0,0,-3.8400969,132.1863,344.07779)"
         id="g2426">
        <path
           id="path2428"
           style="fill:#000000;fill-opacity:1;fill-rule:nonzero;stroke:none"
           d="m 0,0 2.634,0 0,-0.739 -1.659,0 0,-0.911 1.55,0 0,-0.736 -1.55,0 0,-1.603 L 0,-3.989 0,0 z" />
      </g>
      <g
         style="fill:#000000"
         transform="matrix(3.8400969,0,0,-3.8400969,148.95297,351.75798)"
         id="g2430">
        <path
           id="path2432"
           style="fill:#000000;fill-opacity:1;fill-rule:nonzero;stroke:none"
           d="m 0,0 c 0,-0.787 0.398,-1.338 1.051,-1.338 0.659,0 1.038,0.58 1.038,1.356 0,0.721 -0.365,1.336 -1.038,1.336 C 0.384,1.354 0,0.774 0,0 m 3.121,0.047 c 0,-1.314 -0.852,-2.102 -2.122,-2.102 -1.275,0 -2.03,0.895 -2.03,2.037 0,1.196 0.832,2.09 2.1,2.09 1.327,0 2.052,-0.919 2.052,-2.025" />
      </g>
      <g
         style="fill:#000000"
         transform="matrix(3.8400969,0,0,-3.8400969,167.73711,350.87284)"
         id="g2434">
        <path
           id="path2436"
           style="fill:#000000;fill-opacity:1;fill-rule:nonzero;stroke:none"
           d="M 0,0 0.385,0 C 0.871,0 1.161,0.226 1.161,0.575 1.161,0.936 0.892,1.124 0.443,1.124 0.205,1.124 0.071,1.113 0,1.096 L 0,0 z m -0.967,1.716 c 0.315,0.049 0.775,0.083 1.3,0.083 0.642,0 1.09,-0.087 1.398,-0.314 0.262,-0.188 0.404,-0.472 0.404,-0.839 0,-0.502 -0.392,-0.852 -0.763,-0.977 l 0,-0.019 c 0.302,-0.111 0.467,-0.373 0.575,-0.74 0.136,-0.454 0.265,-0.975 0.348,-1.13 l -1.001,0 c -0.062,0.119 -0.172,0.439 -0.293,0.93 -0.123,0.502 -0.31,0.635 -0.711,0.64 l -0.29,0 0,-1.57 -0.967,0 0,3.936 z" />
      </g>
      <g
         style="fill:#000000"
         transform="matrix(3.8400969,0,0,-3.8400969,193.26377,353.52785)"
         id="g2438">
        <path
           id="path2440"
           style="fill:#000000;fill-opacity:1;fill-rule:nonzero;stroke:none"
           d="m 0,0 c -0.019,0.479 -0.038,1.058 -0.038,1.639 l -0.013,0 C -0.192,1.13 -0.371,0.562 -0.538,0.094 l -0.525,-1.556 -0.763,0 -0.461,1.537 C -2.429,0.55 -2.569,1.118 -2.679,1.639 l -0.011,0 C -2.711,1.1 -2.735,0.485 -2.762,-0.013 l -0.083,-1.515 -0.904,0 0.277,3.989 1.299,0 0.423,-1.331 c 0.141,-0.461 0.271,-0.96 0.364,-1.427 l 0.028,0 c 0.116,0.463 0.262,0.988 0.41,1.433 l 0.454,1.325 1.282,0 0.232,-3.989 -0.95,0 L 0,0 z" />
      </g>
      <g
         style="fill:#000000"
         transform="matrix(3.8400969,0,0,-3.8400969,208.6841,352.87545)"
         id="g2442">
        <path
           id="path2444"
           style="fill:#000000;fill-opacity:1;fill-rule:nonzero;stroke:none"
           d="m 0,0 -0.27,0.847 c -0.077,0.237 -0.154,0.533 -0.217,0.77 l -0.014,0 C -0.564,1.38 -0.63,1.078 -0.698,0.847 L -0.956,0 0,0 z m -1.095,-0.674 -0.309,-1.024 -1.007,0 1.316,3.989 1.282,0 1.344,-3.989 -1.057,0 -0.333,1.024 -1.236,0 z" />
      </g>
      <g
         style="fill:#000000"
         transform="matrix(3.8400969,0,0,-3.8400969,218.55473,346.98399)"
         id="g2446">
        <path
           id="path2448"
           style="fill:#000000;fill-opacity:1;fill-rule:nonzero;stroke:none"
           d="m 0,0 -1.166,0 0,0.757 3.32,0 0,-0.757 -1.179,0 0,-3.232 L 0,-3.232 0,0 z" />
      </g>
      <path
         id="path2450"
         style="fill:#000000;fill-opacity:1;fill-rule:nonzero;stroke:none"
         d="m 233.20466,359.39516 -3.74409,0 0,-15.31815 3.74409,0 0,15.31815 z" />
      <g
         style="fill:#000000"
         transform="matrix(3.8400969,0,0,-3.8400969,249.23783,358.9881)"
         id="g2452">
        <path
           id="path2454"
           style="fill:#000000;fill-opacity:1;fill-rule:nonzero;stroke:none"
           d="m 0,0 c -0.174,-0.076 -0.585,-0.172 -1.104,-0.172 -1.493,0 -2.262,0.865 -2.262,2.002 0,1.36 1.052,2.113 2.358,2.113 0.506,0 0.891,-0.089 1.064,-0.178 l -0.204,-0.71 c -0.194,0.077 -0.469,0.147 -0.822,0.147 -0.768,0 -1.371,-0.431 -1.371,-1.319 0,-0.799 0.514,-1.302 1.377,-1.302 0.303,0 0.622,0.054 0.82,0.129 L 0,0 z" />
      </g>
      <g
         style="fill:#000000"
         transform="matrix(3.8400969,0,0,-3.8400969,252.46271,355.82654)"
         id="g2456">
        <path
           id="path2458"
           style="fill:#000000;fill-opacity:1;fill-rule:nonzero;stroke:none"
           d="m 0,0 c 0.256,-0.125 0.667,-0.249 1.083,-0.249 0.449,0 0.686,0.173 0.686,0.433 0,0.249 -0.205,0.39 -0.723,0.556 -0.719,0.236 -1.193,0.604 -1.193,1.184 0,0.68 0.621,1.196 1.634,1.196 0.493,0 0.844,-0.09 1.102,-0.201 L 2.37,2.195 C 2.204,2.274 1.891,2.386 1.475,2.386 1.051,2.386 0.846,2.203 0.846,2 0.846,1.747 1.083,1.634 1.647,1.438 2.409,1.177 2.762,0.812 2.762,0.249 c 0,-0.669 -0.552,-1.237 -1.739,-1.237 -0.492,0 -0.979,0.125 -1.222,0.249 L 0,0 z" />
      </g>
      <g
         style="fill:#000000"
         transform="matrix(3.8400969,0,0,-3.8400969,188.68484,377.18327)"
         id="g2460">
        <path
           id="path2462"
           style="fill:#000000;fill-opacity:1;fill-rule:nonzero;stroke:none"
           d="m 0,0 c -0.173,-0.076 -0.581,-0.171 -1.102,-0.171 -1.492,0 -2.261,0.864 -2.261,2 0,1.363 1.05,2.114 2.358,2.114 0.505,0 0.89,-0.089 1.063,-0.177 l -0.204,-0.71 c -0.194,0.076 -0.468,0.147 -0.821,0.147 -0.769,0 -1.373,-0.432 -1.373,-1.32 0,-0.799 0.514,-1.302 1.379,-1.302 0.302,0 0.621,0.054 0.821,0.129 L 0,0 z" />
      </g>
      <g
         style="fill:#000000"
         transform="matrix(3.8400969,0,0,-3.8400969,201.66399,371.11204)"
         id="g2464">
        <path
           id="path2466"
           style="fill:#000000;fill-opacity:1;fill-rule:nonzero;stroke:none"
           d="m 0,0 -1.589,0 0,-0.946 1.774,0 0,-0.742 -2.748,0 0,3.99 2.659,0 0,-0.739 -1.685,0 0,-0.828 L 0,0.735 0,0 z" />
      </g>
      <g
         style="fill:#000000"
         transform="matrix(3.8400969,0,0,-3.8400969,205.56057,377.59221)"
         id="g2468">
        <path
           id="path2470"
           style="fill:#000000;fill-opacity:1;fill-rule:nonzero;stroke:none"
           d="m 0,0 0,3.989 1.14,0 0.898,-1.46 C 2.293,2.107 2.543,1.611 2.742,1.16 l 0.013,0 C 2.696,1.688 2.679,2.227 2.679,2.83 l 0,1.159 0.896,0 L 3.575,0 2.549,0 1.626,1.541 C 1.371,1.966 1.082,2.48 0.877,2.948 l -0.026,0 C 0.883,2.416 0.896,1.854 0.896,1.203 L 0.896,0 0,0 z" />
      </g>
      <g
         style="fill:#000000"
         transform="matrix(3.8400969,0,0,-3.8400969,226.38849,365.17951)"
         id="g2472">
        <path
           id="path2474"
           style="fill:#000000;fill-opacity:1;fill-rule:nonzero;stroke:none"
           d="m 0,0 -1.168,0 0,0.757 3.32,0 0,-0.757 -1.179,0 0,-3.232 L 0,-3.232 0,0 z" />
      </g>
      <g
         style="fill:#000000"
         transform="matrix(3.8400969,0,0,-3.8400969,240.98777,369.06455)"
         id="g2476">
        <path
           id="path2478"
           style="fill:#000000;fill-opacity:1;fill-rule:nonzero;stroke:none"
           d="M 0,0 0.384,0 C 0.872,0 1.158,0.226 1.158,0.574 1.158,0.935 0.89,1.125 0.441,1.125 0.205,1.125 0.069,1.111 0,1.095 L 0,0 z M -0.969,1.716 C -0.654,1.764 -0.192,1.8 0.333,1.8 0.974,1.8 1.422,1.711 1.729,1.486 1.992,1.296 2.133,1.012 2.133,0.645 c 0,-0.502 -0.39,-0.852 -0.762,-0.976 l 0,-0.018 c 0.301,-0.112 0.467,-0.375 0.577,-0.74 0.133,-0.456 0.261,-0.977 0.346,-1.132 l -1,0 c -0.065,0.119 -0.173,0.44 -0.295,0.93 -0.121,0.504 -0.307,0.634 -0.712,0.64 l -0.287,0 0,-1.57 -0.969,0 0,3.937 z" />
      </g>
      <g
         style="fill:#000000"
         transform="matrix(3.8400969,0,0,-3.8400969,262.35176,371.11204)"
         id="g2480">
        <path
           id="path2482"
           style="fill:#000000;fill-opacity:1;fill-rule:nonzero;stroke:none"
           d="m 0,0 -1.588,0 0,-0.946 1.775,0 0,-0.742 -2.751,0 0,3.99 2.661,0 0,-0.739 -1.685,0 0,-0.828 L 0,0.735 0,0 z" />
      </g>
    </g>
  </g>
</svg>
